<?xml version="1.0" standalone="no"?>
<!DOCTYPE svg PUBLIC "-//W3C//DTD SVG 20010904//EN"
 "http://www.w3.org/TR/2001/REC-SVG-20010904/DTD/svg10.dtd">
<svg version="1.0" xmlns="http://www.w3.org/2000/svg"
 width="960.000000pt" height="960.000000pt" viewBox="0 0 960.000000 960.000000"
 preserveAspectRatio="xMidYMid meet">
<metadata>
Created by potrace 1.14, written by Peter Selinger 2001-2017
</metadata>
<g transform="translate(0.000000,960.000000) scale(0.100000,-0.100000)"
fill="#000000" stroke="none">
<path d="M2167 8310 c-258 -56 -401 -133 -578 -311 -198 -199 -316 -487 -317
-768 0 -66 6 -145 13 -176 7 -30 14 -58 14 -60 10 -66 15 -86 22 -91 5 -3 9
-13 9 -23 0 -28 84 -193 142 -278 98 -146 273 -299 420 -367 70 -33 221 -82
281 -90 27 -4 59 -9 70 -12 30 -6 216 -5 252 1 134 23 170 31 245 58 166 58
312 151 409 261 14 16 36 39 47 51 34 34 144 197 144 212 0 7 5 13 10 13 6 0
10 8 10 18 0 10 6 26 13 37 17 24 64 161 72 207 3 18 8 40 10 48 16 59 23 263
11 320 -3 13 -8 42 -12 64 -16 108 -110 335 -172 415 -15 19 -29 41 -32 47
-22 52 -274 284 -308 284 -6 0 -12 3 -14 8 -4 9 -149 76 -211 97 -151 51 -405
67 -550 35z"/>
<path d="M7250 8310 c-343 -62 -622 -275 -785 -598 -45 -90 -87 -214 -100
-292 -4 -25 -9 -54 -11 -65 -6 -25 -5 -210 0 -250 47 -359 287 -706 591 -855
68 -33 89 -43 125 -55 3 -1 12 -4 20 -8 118 -46 362 -73 480 -52 19 3 62 10
95 16 135 23 272 79 400 163 52 35 255 226 255 240 0 3 20 34 44 68 43 62 112
206 136 284 39 127 49 200 46 339 -2 77 -6 151 -9 165 -4 14 -12 48 -18 75
-68 288 -294 582 -550 716 -24 13 -46 24 -49 24 -3 1 -27 12 -55 24 -27 13
-57 24 -65 26 -8 2 -42 11 -75 19 -146 38 -318 44 -475 16z"/>
<path d="M4710 6563 c-191 -22 -360 -68 -491 -134 -175 -87 -353 -234 -462
-379 -133 -176 -222 -366 -251 -533 -3 -15 -10 -55 -16 -88 -13 -68 -16 -270
-6 -339 19 -131 45 -231 83 -330 89 -229 300 -489 503 -621 119 -78 319 -165
425 -185 11 -2 43 -8 70 -14 148 -29 350 -27 497 6 140 31 167 41 323 112 227
105 447 320 589 576 29 52 85 187 92 220 2 10 8 33 13 50 11 34 27 117 37 186
8 57 8 259 0 297 -3 15 -8 44 -10 63 -4 28 -25 127 -40 185 -19 70 -101 239
-159 325 -80 120 -214 267 -291 319 -11 8 -23 18 -26 21 -3 4 -32 25 -65 47
-198 132 -448 211 -687 216 -57 2 -114 2 -128 0z"/>
<path d="M1867 5684 c-1 -1 -46 -5 -100 -9 -54 -3 -106 -8 -115 -10 -9 -1 -37
-6 -62 -10 -71 -12 -75 -12 -154 -35 -309 -87 -569 -269 -765 -535 -59 -80
-76 -108 -115 -180 -6 -11 -14 -22 -17 -25 -3 -3 -12 -23 -19 -45 -7 -22 -16
-44 -20 -50 -5 -5 -22 -55 -39 -110 -69 -224 -91 -447 -55 -562 30 -95 124
-171 233 -190 20 -3 701 -6 1513 -7 l1477 -1 -83 85 c-154 159 -251 296 -334
470 -149 314 -209 709 -156 1037 l6 39 -69 27 c-151 59 -279 90 -433 103 -56
5 -689 12 -693 8z"/>
<path d="M7167 5684 c-1 -1 -47 -4 -102 -7 -55 -3 -111 -9 -125 -12 -14 -3
-42 -8 -64 -11 -57 -9 -160 -40 -254 -76 l-82 -32 6 -51 c3 -27 9 -72 13 -100
11 -76 3 -293 -14 -383 -1 -9 -8 -51 -15 -92 -56 -343 -235 -685 -489 -935
-34 -33 -61 -62 -61 -65 0 -7 2938 -4 2984 4 123 20 215 106 241 226 33 145
-38 508 -138 709 -37 76 -80 154 -87 161 -3 3 -23 30 -44 60 -68 96 -215 246
-296 302 -25 18 -47 34 -50 38 -14 16 -137 87 -210 122 -52 24 -204 78 -239
84 -14 3 -27 7 -31 9 -14 8 -191 35 -275 41 -73 5 -662 12 -668 8z"/>
<path d="M3967 3474 c-1 -1 -47 -4 -102 -7 -528 -29 -1027 -299 -1351 -732
-143 -191 -241 -397 -299 -625 -23 -93 -27 -109 -40 -200 -4 -25 -8 -56 -10
-70 -3 -14 -7 -68 -10 -120 -14 -234 82 -385 279 -439 45 -12 98 -12 2743 -12
1748 0 1938 1 1990 16 73 20 98 32 146 68 85 65 131 172 131 307 2 374 -131
775 -355 1070 -56 74 -67 88 -158 185 -220 235 -530 415 -861 500 -93 23 -109
27 -200 40 -25 4 -58 9 -75 12 -25 5 -1823 11 -1828 7z"/>
</g>
</svg>
